<svg width="56" height="56" viewBox="0 0 56 56" fill="none" xmlns="http://www.w3.org/2000/svg">
<path fill-rule="evenodd" clip-rule="evenodd" d="M53.927 7.28345C54.0643 7.61465 54.1344 7.96954 54.1334 8.32775L54.1333 8.32986L53.1895 8.32632H54.1334V8.32775V40.519C54.1334 41.2421 53.8444 41.9357 53.3299 42.4471C52.8155 42.9584 52.1178 43.2457 51.3902 43.2457C37.1081 43.2457 31.907 46.1085 28.7371 50.0475C28.5579 50.2701 28.2866 50.3997 27.9998 50.3996C27.713 50.3995 27.4418 50.2699 27.2627 50.0471C24.1128 46.1295 18.8915 43.2457 4.60983 43.2457C3.77639 43.2457 3.06433 42.8991 2.5749 42.3277C2.09738 41.7702 1.86671 41.0435 1.86671 40.3032V8.32791L1.86672 8.32986L2.81058 8.32632H1.86671V8.32791C1.86561 7.96965 1.93572 7.6147 2.07302 7.28345C2.21057 6.95159 2.41284 6.65007 2.66816 6.39628C2.92349 6.14248 3.22682 5.94143 3.56067 5.8047C3.89453 5.66797 4.25298 5.59828 4.61406 5.59963C10.6663 5.62661 15.472 6.23939 19.1846 7.47605C20.0426 7.76187 20.8423 8.08101 21.5854 8.43395C24.6568 9.8926 26.7507 11.9244 28 14.5073C29.2494 11.9244 31.3433 9.8926 34.4147 8.43395C35.1578 8.08101 35.9575 7.76187 36.8155 7.47605C40.528 6.23939 45.3344 5.62661 51.3867 5.59963C51.7478 5.59828 52.1055 5.66797 52.4394 5.8047C52.7733 5.94143 53.0766 6.14248 53.3319 6.39628C53.5872 6.65007 53.7895 6.95159 53.927 7.28345ZM4.60603 7.47605C4.49413 7.47567 4.38325 7.49728 4.27979 7.53965C4.17625 7.58206 4.08217 7.64441 4.00299 7.72312C3.92381 7.80183 3.86108 7.89534 3.81842 7.99826C3.77576 8.10118 3.75402 8.21147 3.75444 8.32278L3.75445 8.32632V40.3032C3.75445 40.6674 3.86788 40.9428 4.01223 41.1113C4.14467 41.2659 4.33223 41.3692 4.60983 41.3692C17.1129 41.3692 23.2528 43.545 27.0667 47.0769V17.4279C26.2291 14.217 24.2789 11.7927 20.7716 10.1271C17.1839 8.42318 11.9501 7.50884 4.60603 7.47605Z" fill="#E31837"/>
<path d="M4.27979 7.53965C4.38325 7.49728 4.49413 7.47567 4.60603 7.47605C11.9501 7.50884 17.1839 8.42318 20.7716 10.1271C24.2789 11.7927 26.2291 14.217 27.0667 17.4279V47.0769C23.2528 43.545 17.1129 41.3692 4.60983 41.3692C4.33223 41.3692 4.14467 41.2659 4.01223 41.1113C3.86788 40.9428 3.75445 40.6674 3.75445 40.3032V8.32632L3.75444 8.32278C3.75402 8.21147 3.77576 8.10118 3.81842 7.99826C3.86108 7.89534 3.92381 7.80183 4.00299 7.72312C4.08217 7.64441 4.17625 7.58206 4.27979 7.53965Z" fill="#FFE0BF"/>
</svg>
