<svg width="56" height="56" viewBox="0 0 56 56" fill="none" xmlns="http://www.w3.org/2000/svg">
<path d="M45.5 8.75H10.5C7.60051 8.75 5.25 11.1005 5.25 14V45.5C5.25 48.3995 7.60051 50.75 10.5 50.75H45.5C48.3995 50.75 50.75 48.3995 50.75 45.5V14C50.75 11.1005 48.3995 8.75 45.5 8.75Z" fill="#FCFCFD" stroke="#E31837" stroke-width="2" stroke-linejoin="round"/>
<path d="M43.988 7.85938H12.3048C8.22879 7.85938 4.91235 11.2272 4.91235 15.3658V22.1572H6.69959C6.69959 20.37 8.48682 18.5828 10.2741 18.5828H46.0187C47.806 18.5828 49.5932 20.37 49.5932 22.1572H51.3804V15.3658C51.3804 11.2272 48.064 7.85938 43.988 7.85938Z" fill="#E31837"/>
<path d="M32.375 28C33.8247 28 35 26.8247 35 25.375C35 23.9253 33.8247 22.75 32.375 22.75C30.9253 22.75 29.75 23.9253 29.75 25.375C29.75 26.8247 30.9253 28 32.375 28Z" fill="#FF9626"/>
<path d="M41.125 28C42.5747 28 43.75 26.8247 43.75 25.375C43.75 23.9253 42.5747 22.75 41.125 22.75C39.6753 22.75 38.5 23.9253 38.5 25.375C38.5 26.8247 39.6753 28 41.125 28Z" fill="#FF9626"/>
<path d="M32.375 36.75C33.8247 36.75 35 35.5747 35 34.125C35 32.6753 33.8247 31.5 32.375 31.5C30.9253 31.5 29.75 32.6753 29.75 34.125C29.75 35.5747 30.9253 36.75 32.375 36.75Z" fill="#FF9626"/>
<path d="M41.125 36.75C42.5747 36.75 43.75 35.5747 43.75 34.125C43.75 32.6753 42.5747 31.5 41.125 31.5C39.6753 31.5 38.5 32.6753 38.5 34.125C38.5 35.5747 39.6753 36.75 41.125 36.75Z" fill="#FF9626"/>
<path d="M14.875 36.75C16.3247 36.75 17.5 35.5747 17.5 34.125C17.5 32.6753 16.3247 31.5 14.875 31.5C13.4253 31.5 12.25 32.6753 12.25 34.125C12.25 35.5747 13.4253 36.75 14.875 36.75Z" fill="#FF9626"/>
<path d="M23.625 36.75C25.0747 36.75 26.25 35.5747 26.25 34.125C26.25 32.6753 25.0747 31.5 23.625 31.5C22.1753 31.5 21 32.6753 21 34.125C21 35.5747 22.1753 36.75 23.625 36.75Z" fill="#FF9626"/>
<path d="M14.875 45.5C16.3247 45.5 17.5 44.3247 17.5 42.875C17.5 41.4253 16.3247 40.25 14.875 40.25C13.4253 40.25 12.25 41.4253 12.25 42.875C12.25 44.3247 13.4253 45.5 14.875 45.5Z" fill="#FF9626"/>
<path d="M23.625 45.5C25.0747 45.5 26.25 44.3247 26.25 42.875C26.25 41.4253 25.0747 40.25 23.625 40.25C22.1753 40.25 21 41.4253 21 42.875C21 44.3247 22.1753 45.5 23.625 45.5Z" fill="#FF9626"/>
<path d="M32.375 45.5C33.8247 45.5 35 44.3247 35 42.875C35 41.4253 33.8247 40.25 32.375 40.25C30.9253 40.25 29.75 41.4253 29.75 42.875C29.75 44.3247 30.9253 45.5 32.375 45.5Z" fill="#FF9626"/>
<path d="M14 5.25V8.75" stroke="#E31837" stroke-width="2" stroke-linecap="round" stroke-linejoin="round"/>
<path d="M42 5.25V8.75" stroke="#E31837" stroke-width="2" stroke-linecap="round" stroke-linejoin="round"/>
</svg>
