<svg width="56" height="56" viewBox="0 0 56 56" fill="none" xmlns="http://www.w3.org/2000/svg">
<path d="M6.4808 52H49.5201C51.1601 52 52.1601 50.9 51.7201 49.76C51.6687 49.5084 51.5634 49.2708 51.4115 49.0637C51.2596 48.8565 51.0647 48.6847 50.8401 48.56L47.5002 46.5601L33.5004 37.7802L33.0004 37.4602L32.5404 37.1802C31.9209 36.7848 31.2472 36.4816 30.5404 36.2802C29.7502 35.8893 28.8839 35.6776 28.0035 35.6596C27.1003 35.6681 26.2104 35.8805 25.4003 36.2812C24.6935 36.4826 24.0198 36.7858 23.4003 37.1812L22.7602 37.4607L22.2406 37.9002L8.24078 46.6801L4.90083 48.68C4.67625 48.8047 4.48132 48.9765 4.32942 49.1837C4.17752 49.3908 4.07225 49.6284 4.02084 49.88C3.84084 50.9 4.84083 52 6.4808 52Z" fill="#E31837"/>
<path d="M22.7602 37.4607L22.2602 37.7807L8.26044 46.5606L4.9205 48.5606C4.69592 48.6853 4.50099 48.857 4.34909 49.0642C4.19719 49.2713 4.09192 49.5089 4.04051 49.7606C4.04051 49.7606 4.04051 49.5606 4.04051 49.4606V19.8609L11.3404 26.7008L22.7602 37.4607ZM22.7602 37.4607L22.2406 37.9002L8.24078 46.6801L4.90083 48.68C4.67625 48.8047 4.48132 48.9765 4.32942 49.1837C4.17752 49.3908 4.07225 49.6284 4.02084 49.88C3.84084 50.9 4.84083 52 6.4808 52H49.5201C51.1601 52 52.1601 50.9 51.7201 49.76C51.6687 49.5084 51.5634 49.2708 51.4115 49.0637C51.2596 48.8565 51.0647 48.6847 50.8401 48.56L47.5002 46.5601L33.5004 37.7802L33.0004 37.4602L32.5404 37.1802C31.9209 36.7848 31.2472 36.4816 30.5404 36.2802C29.7502 35.8893 28.8839 35.6776 28.0035 35.6596M22.7602 37.4607L23.2205 37.1802C23.84 36.7848 24.5138 36.4816 25.2205 36.2802C26.0476 35.8711 26.9578 35.6583 27.8805 35.6583C27.9215 35.6583 27.9625 35.6587 28.0035 35.6596M22.7602 37.4607L23.4003 37.1812C24.0198 36.7858 24.6935 36.4826 25.4003 36.2812C26.2104 35.8805 27.1003 35.6681 28.0035 35.6596M22.7602 37.4607L11.2405 26.6613V9.14146H44.76V26.7013L33.1802 37.4611L32.7202 37.1812C32.1007 36.7858 31.427 36.4826 30.7202 36.2812C29.8932 35.8721 28.9829 35.6593 28.0603 35.6593C28.0413 35.6593 28.0224 35.6594 28.0035 35.6596M52 19.8609V49.5806C52 49.5806 52 49.7805 52 49.8805C51.9486 49.6289 51.8433 49.3913 51.6914 49.1842C51.5395 48.9771 51.3446 48.8052 51.12 48.6806L47.7801 46.6806L33.7803 37.9007L33.2803 37.5807L44.8001 26.7808L52 19.8609ZM52 19.8609L44.7 26.7007V14.9808L52 19.8609ZM11.3005 14.9808V26.7007L4.00064 19.8608L11.3005 14.9808ZM36.0002 9.14089H20.0004L27.4203 4.18095C27.5908 4.06312 27.7931 4 28.0003 4C28.2075 4 28.4099 4.06312 28.5803 4.18095L36.0002 9.14089Z" stroke="#E31837" stroke-width="2" stroke-linecap="round" stroke-linejoin="round"/>
<path d="M21.3999 18.2305H35.3997" stroke="#FF9626" stroke-width="2.5" stroke-linecap="round" stroke-linejoin="round"/>
<path d="M18.3999 22.8633H38.3996" stroke="#FF9626" stroke-width="2.5" stroke-linecap="round" stroke-linejoin="round"/>
<path d="M18.3999 27.4941H38.3996" stroke="#FF9626" stroke-width="2.5" stroke-linecap="round" stroke-linejoin="round"/>
</svg>
